<!-- filepath: assets/assets/svg/diamond-logo.svg -->
<svg width="400" height="400" viewBox="0 0 400 400" fill="none" xmlns="http://www.w3.org/2000/svg">
  <!-- الألماسة -->
  <polygon points="200,80 260,140 200,200 140,140" fill="#FFD700" stroke="#FFD700" stroke-width="4"/>
  <polygon points="200,80 220,140 200,200 180,140" fill="#FFC300" stroke="#FFC300" stroke-width="2"/>
  <polygon points="140,140 200,140 200,200" fill="#FFB300" stroke="#FFB300" stroke-width="2"/>
  <polygon points="260,140 200,140 200,200" fill="#FFB300" stroke="#FFB300" stroke-width="2"/>
  <!-- أشعة -->
  <polygon points="200,200 60,180 70,170 200,190" fill="#FFD700"/>
  <polygon points="200,200 340,180 330,170 200,190" fill="#FFD700"/>
  <polygon points="200,200 100,220 110,210 200,195" fill="#FFD700"/>
  <polygon points="200,200 300,220 290,210 200,195" fill="#FFD700"/>
  <!-- النص -->
  <text x="200" y="270" font-family="Arial, Tahoma, sans-serif" font-size="38" fill="#FFD700" font-weight="bold" text-anchor="middle" direction="rtl">
    الماسة بست
  </text>
  <text x="200" y="310" font-family="Arial, Tahoma, sans-serif" font-size="22" fill="white" font-weight="bold" text-anchor="middle" direction="rtl">
    محمود فرج
  </text>
</svg>